<?xml version="1.0" standalone="no"?>
<!DOCTYPE svg PUBLIC "-//W3C//DTD SVG 20010904//EN"
 "http://www.w3.org/TR/2001/REC-SVG-20010904/DTD/svg10.dtd">
<svg version="1.0" xmlns="http://www.w3.org/2000/svg"
 width="864.000000pt" height="864.000000pt" viewBox="0 0 864.000000 864.000000"
 preserveAspectRatio="xMidYMid meet">
<metadata>
Created by potrace 1.14, written by Peter Selinger 2001-2017
</metadata>
<g transform="translate(0.000000,864.000000) scale(0.100000,-0.100000)"
fill="#000000" stroke="none">
<path d="M516 6086 c-25 -22 -38 -85 -16 -71 6 3 10 -1 10 -9 0 -24 39 -29
225 -31 226 -2 231 -3 249 -20 8 -9 18 -16 21 -15 3 0 9 0 14 0 12 0 79 -71
95 -101 7 -14 17 -39 21 -55 5 -16 9 -536 9 -1155 1 -882 4 -1129 14 -1141 10
-13 4 -23 -35 -63 -27 -26 -47 -52 -45 -56 1 -5 -2 -9 -7 -9 -5 0 -12 -15 -16
-32 -4 -18 -9 -40 -11 -48 -10 -35 -10 -100 0 -100 5 0 7 -3 4 -6 -9 -8 22
-94 33 -94 5 0 9 -6 9 -13 0 -27 101 -101 153 -113 12 -3 75 -7 139 -8 65 -1
120 -5 123 -8 4 -4 -1 -18 -11 -33 -30 -47 -24 -235 8 -235 5 0 7 -4 4 -9 -9
-13 101 -121 123 -121 10 0 21 -3 25 -7 8 -8 25 -12 82 -19 43 -6 154 21 154
37 0 5 7 9 15 9 8 0 15 5 15 10 0 6 6 10 13 10 13 0 75 89 82 118 3 9 8 33 13
52 5 20 8 44 6 54 -7 47 -27 116 -33 116 -4 0 -8 6 -8 13 0 9 132 12 624 12
342 0 623 0 623 -1 0 0 -8 -25 -18 -55 -20 -59 -22 -151 -4 -185 6 -12 8 -24
5 -28 -3 -3 0 -6 7 -6 7 0 11 -3 7 -6 -12 -12 83 -108 123 -123 14 -5 34 -13
45 -17 31 -11 113 -13 151 -3 18 6 37 11 41 12 5 1 16 8 26 17 10 8 20 14 22
13 8 -4 55 44 55 56 0 6 4 11 9 11 10 0 39 58 48 93 9 41 10 112 0 125 -5 6
-6 12 -3 12 4 0 3 8 -2 18 -5 9 -12 28 -15 42 l-6 26 152 -1 c84 -1 162 3 174
8 21 9 37 49 31 78 -10 45 44 44 -1423 45 -1377 1 -1420 2 -1440 34 -3 5 -12
7 -18 4 -7 -4 -9 -3 -4 1 4 5 0 16 -8 25 -9 10 -17 26 -19 36 -2 11 -5 24 -7
29 -7 24 13 94 33 117 50 56 -26 53 1303 54 932 1 1236 4 1253 13 12 6 22 9
22 6 0 -3 10 3 22 15 12 11 25 20 30 20 4 0 8 7 8 16 0 8 4 13 9 10 5 -4 12 7
16 24 4 16 11 30 16 30 5 0 7 14 5 30 -2 17 -1 30 3 30 3 0 7 19 8 43 1 23 5
62 8 87 3 25 8 63 10 85 2 22 4 40 5 40 1 0 3 16 5 35 1 19 5 62 9 95 13 100
17 139 18 155 0 8 6 21 12 29 9 12 8 13 -3 6 -10 -6 -12 -4 -6 5 4 7 9 31 11
54 3 40 5 59 19 176 4 30 8 74 9 97 0 24 3 43 7 43 3 0 6 19 6 43 1 23 2 42 3
42 1 0 4 16 5 35 2 19 6 58 10 85 4 28 8 61 9 75 1 14 4 30 8 35 4 6 3 17 -2
25 -5 8 -5 21 0 30 4 8 11 42 14 75 4 33 9 78 12 100 22 172 -2 241 -95 273
-26 9 -361 12 -1355 12 -727 0 -1325 0 -1331 0 -6 0 -11 79 -11 213 -2 235 -4
249 -42 326 -28 58 -122 161 -147 161 -8 0 -15 4 -15 8 0 12 -108 44 -122 36
-7 -4 -8 -3 -4 4 5 9 -45 12 -198 12 -202 0 -205 0 -230 -24z m3228 -1083 c33
-32 24 -79 -19 -100 -13 -6 -430 -9 -1117 -9 -1062 1 -1097 2 -1117 20 -12 11
-21 29 -21 40 0 30 26 64 53 68 12 2 512 3 1110 3 l1088 0 23 -22z m-2179
-205 c21 -9 32 -29 23 -41 -2 -2 3 -11 10 -20 9 -11 10 -17 2 -22 -8 -5 -8
-10 0 -20 8 -10 8 -15 0 -20 -8 -5 -8 -10 0 -20 8 -10 8 -15 0 -20 -8 -5 -8
-10 0 -20 8 -10 8 -15 0 -20 -8 -5 -8 -10 0 -20 8 -10 8 -15 0 -20 -8 -5 -8
-10 0 -20 8 -10 8 -15 0 -20 -8 -5 -8 -10 0 -20 8 -10 8 -15 0 -20 -8 -5 -8
-10 0 -20 8 -10 8 -15 0 -20 -8 -5 -8 -10 0 -20 8 -10 8 -15 0 -20 -8 -5 -8
-10 0 -20 8 -10 8 -15 0 -20 -8 -5 -8 -10 0 -20 8 -10 8 -15 0 -20 -8 -5 -8
-10 0 -20 8 -10 8 -15 0 -20 -8 -5 -8 -10 0 -20 8 -10 8 -15 0 -20 -8 -5 -8
-10 0 -20 8 -10 8 -15 0 -20 -8 -5 -8 -10 0 -20 8 -9 8 -15 0 -20 -7 -4 -7
-12 0 -26 6 -10 7 -19 3 -19 -10 0 -10 -41 0 -57 4 -7 3 -14 -3 -18 -6 -4 -7
-12 -3 -18 10 -16 10 -48 0 -69 -5 -12 -3 -18 4 -18 9 0 9 -3 0 -14 -8 -10 -9
-16 -1 -21 7 -4 7 -12 0 -26 -8 -13 -7 -19 0 -19 8 0 8 -6 0 -20 -8 -14 -8
-20 0 -20 8 0 8 -6 0 -20 -6 -12 -7 -20 -1 -20 16 0 -13 -49 -35 -59 -27 -12
-43 -10 -71 10 l-22 15 -1 517 c0 346 3 517 10 517 5 0 10 6 10 14 0 13 13 20
42 25 4 0 19 -4 33 -11z m335 -11 l26 -22 -1 -500 c-1 -275 -5 -510 -9 -523
-9 -26 -47 -45 -73 -35 -49 18 -48 6 -47 549 1 280 2 512 3 516 1 9 51 37 66
38 6 0 21 -10 35 -23z m330 -2 c20 -18 21 -29 19 -168 0 -81 2 -151 5 -154 3
-3 3 -10 0 -14 -3 -5 -5 -166 -4 -358 l0 -349 -26 -21 c-19 -15 -34 -19 -53
-15 -34 8 -42 16 -45 45 -1 14 -6 30 -10 37 -4 7 -4 18 1 25 5 7 8 23 6 37 -5
34 -3 92 3 101 2 4 0 10 -5 13 -5 3 -5 21 -1 41 4 19 4 37 -1 40 -4 3 -4 17 1
30 6 15 6 27 0 30 -6 4 -7 14 -2 23 9 21 9 43 -1 60 -5 6 -5 18 -1 24 11 18
12 48 2 54 -5 3 -4 12 2 19 8 10 8 15 0 20 -7 5 -8 11 -1 19 5 6 6 17 2 25 -4
7 -5 30 -1 52 4 22 4 41 0 44 -6 4 -6 40 0 55 6 14 4 36 -3 47 -4 6 -3 14 3
18 8 5 8 11 -1 21 -9 11 -9 17 0 28 9 10 9 16 1 21 -6 4 -7 12 -3 18 10 15 10
38 0 54 -4 6 -3 15 3 18 8 5 7 11 -1 21 -9 11 -9 14 1 14 8 0 10 3 7 7 -10 10
44 43 65 40 9 -2 27 -12 38 -22z m321 4 l24 -20 0 -497 c1 -273 -2 -508 -5
-521 -3 -14 -21 -33 -39 -43 -18 -10 -30 -14 -26 -8 3 5 -3 10 -13 10 -47 0
-47 2 -47 539 -1 532 0 543 43 554 32 9 39 7 63 -14z m330 -5 c10 -9 16 -20
14 -25 -3 -4 -1 -10 5 -14 6 -4 7 -12 1 -22 -5 -9 -5 -28 -1 -43 4 -15 4 -33
-1 -41 -4 -8 -3 -19 3 -26 7 -9 7 -13 0 -13 -7 0 -8 -10 -2 -30 5 -16 6 -30 2
-30 -4 0 -5 -88 -2 -196 3 -108 2 -201 -2 -207 -4 -6 -2 -17 4 -24 6 -8 7 -13
1 -13 -7 0 -7 -15 -3 -40 4 -23 3 -43 -2 -46 -5 -3 -4 -12 3 -20 6 -8 7 -14 2
-14 -7 0 -7 -15 -3 -40 4 -23 3 -43 -2 -46 -5 -3 -4 -12 3 -20 9 -11 9 -14 -1
-14 -9 0 -9 -4 -2 -13 7 -8 7 -18 2 -27 -5 -9 -5 -19 2 -27 7 -9 7 -13 0 -13
-6 0 -9 -6 -6 -13 3 -8 -4 -24 -14 -37 -25 -30 -71 -33 -93 -5 -15 19 -31 105
-19 105 3 0 4 210 2 467 l-2 466 21 24 c25 26 59 25 90 -3z m327 4 c7 -6 11
-17 8 -25 -3 -7 -2 -13 2 -13 9 0 8 -978 -1 -1005 -7 -21 -67 -61 -67 -45 0 6
-6 10 -14 10 -40 0 -41 13 -41 539 -1 419 1 510 13 528 8 13 18 20 23 17 5 -3
9 0 9 6 0 14 47 5 68 -12z m313 8 c9 -4 20 -21 23 -39 4 -17 6 -252 6 -523
l-1 -491 -22 -21 c-28 -26 -62 -22 -92 10 -18 21 -20 35 -18 136 0 63 4 116 7
119 3 4 1 12 -5 20 -6 7 -8 13 -3 13 5 0 7 45 4 101 -3 56 -1 103 3 106 4 3 3
11 -4 19 -6 8 -7 14 -2 14 5 0 6 27 3 61 -3 33 -2 63 3 66 4 2 3 11 -4 19 -7
8 -7 14 -1 14 6 0 7 13 2 34 -4 19 -4 40 1 47 4 7 3 19 -3 26 -7 9 -7 13 2 13
9 0 9 4 2 13 -7 8 -7 18 -2 27 5 9 5 19 -2 27 -6 7 -7 13 -2 13 10 0 10 107 1
117 -7 7 13 44 33 59 14 12 42 12 71 0z"/>
<path d="M4600 4310 l0 -1770 83 0 c718 -3 3452 1 3456 6 3 3 6 800 6 1770 l0
1764 -1772 0 -1773 0 0 -1770z"/>
<path d="M515 5874 c-11 -8 -19 -18 -19 -22 1 -4 -1 -12 -3 -19 -12 -31 50
-82 83 -69 8 3 16 1 19 -4 3 -5 15 -6 28 -1 14 5 30 5 40 0 9 -6 17 -6 17 -2
0 10 41 10 57 0 7 -4 14 -3 18 3 4 7 12 7 26 0 12 -7 19 -7 19 -1 0 7 8 7 23
2 12 -5 31 -5 42 -1 11 4 25 3 32 -2 7 -5 14 -5 18 2 4 7 12 7 26 0 12 -7 19
-7 19 -1 0 7 9 7 25 1 16 -6 25 -6 25 0 0 6 6 10 13 10 34 0 41 82 9 106 -27
21 -489 19 -517 -2z"/>
</g>
</svg>
